<?xml version="1.0" encoding="utf-8"?>
<!-- Generator: Adobe Illustrator 19.2.0, SVG Export Plug-In . SVG Version: 6.00 Build 0)  -->
<svg version="1.1" xmlns="http://www.w3.org/2000/svg" xmlns:xlink="http://www.w3.org/1999/xlink" x="0px" y="0px"
	 viewBox="0 0 1200 1200" style="enable-background:new 0 0 1200 1200;" xml:space="preserve">
<style type="text/css">
	.st0{fill:#AFECDE;}
	.st1{opacity:0.6;clip-path:url(#SVGID_2_);fill:#FFFFFF;}
	.st2{opacity:0.3;clip-path:url(#SVGID_2_);fill:#FFFFFF;}
	.st3{clip-path:url(#SVGID_2_);}
	.st4{opacity:0.6;fill:#FFFFFF;}
	.st5{opacity:0.3;fill:#FFFFFF;}
</style>
<g id="bg">
	<rect x="0.1" y="1.6" class="st0" width="1200" height="1200"/>
	<g>
		<defs>
			<rect id="SVGID_1_" x="0.1" y="1.6" width="1200" height="1200"/>
		</defs>
		<clipPath id="SVGID_2_">
			<use xlink:href="#SVGID_1_"  style="overflow:visible;"/>
		</clipPath>
		<path class="st1" d="M230,416.2c-5,0.5-9.8,1.8-14.2,3.6c-6.2-16.3-22.2-27.7-41-29c-1-22.5,16.8-43.2,40.7-45.7
			c18.4-1.9,43.8,10.4,44.5,28.7c17.4-21.6,58.2-1,50.4,26.3c10.9-2.2,27.7,6,29.2,21.4c1.6,15.3-8.8,27.3-23.1,28.7l-34.6,3.5
			C278.3,430.3,255.6,413.6,230,416.2z"/>
		<path class="st2" d="M230.2,340c5.7-6.5,13.8-11.4,22.5-12.8c4.2-0.7,21.7-0.4,22.8,5.9c-3.6-20.8,22.3-40.6,43.5-42.8
			c28.3-2.9,53.8,17.5,56.9,44.2c22.2-11.5,50.6,8.7,53.3,34.7c2.7,26-11.2,44-37.4,46.7c-19.7,2-39.5,4-59.2,6.1
			c-16,1.6-31.7,7.4-47.7,2.9c-14.5-4.1-26.3-14.4-38.4-22.9C226.5,387.8,211.1,361.7,230.2,340z"/>
		<g class="st3">
			<path class="st4" d="M688.1,729.1c-3.1,0.3-6,1.1-8.6,2.2c-3.8-9.9-13.5-16.8-24.8-17.6c-0.6-13.6,10.2-26.2,24.6-27.7
				c11.2-1.1,26.6,6.3,27,17.4c10.6-13.1,35.3-0.6,30.6,15.9c6.6-1.3,16.8,3.7,17.7,13c0.9,9.3-5.3,16.5-14,17.4l-20.9,2.1
				C717.4,737.7,703.6,727.5,688.1,729.1z"/>
			<path class="st5" d="M688.2,682.9c3.5-3.9,8.4-6.9,13.6-7.8c2.5-0.4,13.2-0.2,13.8,3.6c-2.2-12.6,13.5-24.6,26.4-25.9
				c17.1-1.8,32.6,10.6,34.5,26.8c13.4-7,30.7,5.2,32.3,21c1.6,15.8-6.8,26.7-22.7,28.3c-12,1.2-23.9,2.4-35.9,3.7
				c-9.7,1-19.2,4.5-28.9,1.7c-8.8-2.5-15.9-8.7-23.3-13.9C686,711.9,676.6,696.1,688.2,682.9z"/>
		</g>
		<path class="st2" d="M991,90.5c5.8-3.8,13-5.8,19.9-5.1c3.3,0.4,16.7,4.3,16.2,9.3c1.6-16.7,25.6-26.4,42.2-23.7
			c22.2,3.7,37.6,24.7,34.3,45.7c19.4-4.2,37,17.2,33.6,37.7c-3.4,20.5-17.8,31.4-38.4,27.9c-15.5-2.6-31.1-5.2-46.6-7.7
			c-12.6-2.1-25.8-1-37.1-7.8c-10.3-6.2-17.1-16.5-24.6-25.6C978.2,126.4,971.8,103.1,991,90.5z"/>
		<path class="st1" d="M974.9,148.8c-4-0.7-7.9-0.7-11.7-0.2c-1.4-13.8-11.2-25.9-25.3-30.8c4-17.4,21.9-29.6,40.7-26.5
			c14.5,2.4,31.4,17.1,28.1,31.3c17.9-12.9,44.7,11.4,33.1,30.7c8.8,0.6,19.9,10.4,17.9,22.5c-2,12.1-12.5,19-23.7,17.2l-27.2-4.5
			C1009,169.7,995,152.2,974.9,148.8z"/>
		<path class="st1" d="M1085.8,562.4c3.4-29.3,31.5-51.8,62.6-48.6c23.3,2.4,51.7,24.1,47.8,47c27.2-22.4,72.4,13.7,55.8,45.5
			c14.1,0.1,32.8,14.6,30.8,34c-2,19.4-17.9,31.6-36,29.7l-178.4-18.2c-28.9-3-44.1-22.7-41.2-51.3
			C1030.1,571.9,1061.4,549.7,1085.8,562.4z"/>
		<path class="st1" d="M150.6,739.3c-3.4-29.3-31.5-51.8-62.6-48.6c-23.3,2.4-51.7,24.1-47.8,47c-27.2-22.4-72.4,13.7-55.8,45.5
			c-14.1,0.1-32.8,14.6-30.8,34c2,19.4,17.9,31.6,36,29.7L168,828.8c28.9-3,44.1-22.7,41.2-51.3C206.3,748.8,175,726.6,150.6,739.3z
			"/>
		<path class="st1" d="M19.6,407.1c2.2-19.2,20.6-33.9,40.9-31.8c15.3,1.6,33.9,15.8,31.3,30.8c17.8-14.6,47.4,9,36.5,29.8
			c9.2,0.1,21.5,9.6,20.2,22.3c-1.3,12.7-11.7,20.7-23.6,19.4L8.2,465.7c-18.9-1.9-28.9-14.9-27-33.6
			C-16.8,413.4,3.7,398.8,19.6,407.1z"/>
		<path class="st1" d="M1055.1,405.5c1.3-19.3-14.2-37-34.6-38.6c-15.3-1.2-36.1,9.5-36.3,24.7c-14.9-17.6-48.2,0.3-41.3,22.7
			c-9.1-1.6-22.8,5.5-23.8,18.3c-1,12.8,7.8,22.4,19.7,23.4l117,9.2c18.9,1.5,31.1-9.4,32.6-28.2
			C1089.9,418.2,1072.3,400.2,1055.1,405.5z"/>
		<path class="st1" d="M1230.1,906.4c1.3-19.3-14.2-37-34.6-38.6c-15.3-1.2-36.1,9.5-36.3,24.7c-14.9-17.6-48.2,0.3-41.3,22.7
			c-9.1-1.6-22.8,5.5-23.8,18.3c-1,12.8,7.8,22.4,19.7,23.4l117,9.2c18.9,1.5,31.1-9.4,32.6-28.2
			C1264.8,919.1,1247.3,901.1,1230.1,906.4z"/>
		<path class="st1" d="M352.4,914.5c-0.8-12.3,9-23.6,22-24.6c9.8-0.8,23,6,23.2,15.7c9.5-11.2,30.8,0.2,26.3,14.5
			c5.8-1,14.6,3.5,15.2,11.7c0.6,8.1-5,14.3-12.6,14.9l-74.6,5.9c-12.1,1-19.8-6-20.8-18C330.3,922.6,341.5,911.1,352.4,914.5z"/>
		<path class="st1" d="M193.8,139.8c-1.2-17.1-16.9-30.9-35-29.9c-13.6,0.8-30.7,12.6-29,26c-15.2-13.7-42.4,6-33.6,24.9
			c-8.2-0.3-19.4,7.6-18.8,18.9c0.6,11.3,9.6,18.8,20.1,18.2l104.1-5.8c16.8-0.9,26.2-12,25.3-28.7
			C225.9,146.8,208.3,133.1,193.8,139.8z"/>
	</g>
</g>
<g id="objects">
</g>
</svg>
